<svg xmlns="http://www.w3.org/2000/svg" width="1920" height="782" viewBox="0 0 1920 782"><ellipse cx="99" cy="94.5" rx="99" ry="94.5" transform="translate(394 202)" fill="#ff7a00" opacity="0.18"/><ellipse cx="99" cy="94.5" rx="99" ry="94.5" transform="translate(1422 295)" fill="#ffee02" opacity="0.18"/><ellipse cx="192" cy="133" rx="192" ry="133" transform="translate(941 366)" fill="#ff7a00" opacity="0.18"/><rect width="1920" height="714" fill="#fff" opacity="0.25"/><g transform="translate(813.965 174.996)"><circle cx="5.5" cy="5.5" r="5.5" transform="translate(68.914 260.004)" fill="#25524b"/><ellipse cx="5.5" cy="5" rx="5.5" ry="5" transform="translate(613.914 0.004)" fill="#eb4240"/><g transform="translate(247.449 77.424) rotate(-171)"><path d="M60.762,1.162C60.105,1.2,28.913,26.2.327,0,.216-.1-.29,2.2.232,2.68c30.216,27.959,68.23-1.91,60.53-1.518Z" transform="translate(0.119 3.445)" fill="#25524b"/><path d="M11.148,21.232C4.781,14.954.4,4.763.324,5.5,7.231,6.865,14.365,8.311,19.143,1.817c.152-.206.11-1.9-.1-1.814C11.553,3.011,14.236,4.982.252,2.56c-.805-.139-.289,16.678,10.887,20.489.191.065.214-1.614.009-1.816Z" transform="translate(0 0)" fill="#25524b"/></g><g transform="matrix(-0.602, -0.799, 0.799, -0.602, 804.18, 377.418)"><path d="M39.247,22.1C2.4,38.27-1.381,10.336,2.7,3.854c.368-.585.116-4.174-.324-3.831C-3.113,4.3-.319,34.848,23.966,30.615c13.552-2.363,47.842-27.365,60.158,1.8C85.5,35.679,83.468,2.707,39.247,22.1Z" fill="#25524b"/><path d="M18.688,17.964C15.917-2.6,9.12-1.331,11.153,1.741c3.559,5.376,5.082,5.628,6.631,16.052-4.6-3.717-13.971-1.122-17.63,2.8-.2.209-.253,2.05.11,2.042,4.529-.1,9.683-6.467,18-1.72A19.422,19.422,0,0,0,18.688,17.964Z" transform="translate(65.996 12.194)" fill="#25524b"/></g><g transform="translate(7.7 411.344)"><g transform="translate(0)"><g transform="translate(15.737 0)"><path d="M3708.474,1854.094a.682.682,0,0,1-.682-.682v-31.474a.682.682,0,0,1,1.364,0v31.474A.682.682,0,0,1,3708.474,1854.094Z" transform="translate(-3707.792 -1821.256)" fill="#25524b"/></g><g transform="translate(0 15.737)"><path d="M3659.16,1903.408h-31.475a.682.682,0,0,1,0-1.363h31.475a.682.682,0,0,1,0,1.363Z" transform="translate(-3627.004 -1902.044)" fill="#25524b"/></g></g><g transform="translate(4.609 4.609)"><g transform="translate(0 0)"><path d="M3651.348,1868.538a.682.682,0,0,1-.481-1.164l22.256-22.256a.682.682,0,0,1,.964.964l-22.256,22.255A.678.678,0,0,1,3651.348,1868.538Z" transform="translate(-3650.667 -1844.919)" fill="#25524b"/></g><g transform="translate(0 0)"><path d="M3673.6,1868.538a.679.679,0,0,1-.481-.2l-22.256-22.255a.682.682,0,0,1,.964-.964l22.256,22.256a.682.682,0,0,1-.482,1.164Z" transform="translate(-3650.667 -1844.919)" fill="#25524b"/></g></g></g><circle cx="3.118" cy="3.118" r="3.118" transform="matrix(0.966, 0.259, -0.259, 0.966, 200.472, 100.825)" fill="#eb4240"/><ellipse cx="81.5" cy="78" rx="81.5" ry="78" transform="translate(-0.086 183.004)" fill="#ffee02" opacity="0.08"/></g></svg>