<svg xmlns="http://www.w3.org/2000/svg" width="644.621" height="755.553" viewBox="0 0 644.621 755.553"><g transform="matrix(0.454, -0.891, 0.891, 0.454, -1668.178, -4705.483)"><path d="M136,6A130.147,130.147,0,0,0,6,136V305.41a130.147,130.147,0,0,0,130,130H325.511a130.147,130.147,0,0,0,130-130V136a130.147,130.147,0,0,0-130-130H136m0-6H325.511a136,136,0,0,1,136,136V305.41a136,136,0,0,1-136,136H136a136,136,0,0,1-136-136V136A136,136,0,0,1,136,0Z" transform="translate(-3710.431 3762.8) rotate(21)" fill="rgba(254,172,0,0.05)"/><path d="M136,6A130.147,130.147,0,0,0,6,136V305.41a130.147,130.147,0,0,0,130,130H325.511a130.147,130.147,0,0,0,130-130V136a130.147,130.147,0,0,0-130-130H136m0-6H325.511a136,136,0,0,1,136,136V305.41a136,136,0,0,1-136,136H136a136,136,0,0,1-136-136V136A136,136,0,0,1,136,0Z" transform="translate(-3813.347 3822.297) rotate(21)" fill="rgba(254,172,0,0.05)"/></g></svg>