<svg xmlns="http://www.w3.org/2000/svg" width="17.712" height="22.066" viewBox="0 0 17.712 22.066"><g transform="translate(-2039.875 61.125)"><path d="M66.258,18.858,65.008,4.792a.6.6,0,0,0-.6-.549h-2.57a4.31,4.31,0,0,0-8.619,0h-2.57a.6.6,0,0,0-.6.549L48.8,18.858c0,.018,0,.036,0,.054a3.109,3.109,0,0,0,3.275,2.9H62.987a3.109,3.109,0,0,0,3.275-2.9A.217.217,0,0,0,66.258,18.858ZM57.531,1.2a3.108,3.108,0,0,1,3.105,3.038h-6.21A3.108,3.108,0,0,1,57.531,1.2Zm5.456,19.407H52.075A1.922,1.922,0,0,1,50,18.939L51.2,5.452h2.665c.335,0,.555,0,.834,0h6.155c.275,0,.019,0,.353,0h2.65l1.2,13.487A1.925,1.925,0,0,1,62.987,20.612Z" transform="translate(1991.2 -61)" fill="#333"/><path d="M62.987,21.941H52.075a3.234,3.234,0,0,1-3.4-3.029.342.342,0,0,1,0-.042s0-.008,0-.012v-.011L49.929,4.781a.721.721,0,0,1,.722-.663H53.1a4.435,4.435,0,0,1,8.862,0h2.448a.73.73,0,0,1,.722.663l1.248,14.059a.356.356,0,0,1,.006.073A3.234,3.234,0,0,1,62.987,21.941ZM48.929,18.865c0,.012,0,.024,0,.036s0,.008,0,.012a2.985,2.985,0,0,0,3.15,2.779H62.987a2.985,2.985,0,0,0,3.15-2.779.2.2,0,0,0,0-.023l0-.019L64.884,4.8a.478.478,0,0,0-.473-.435H61.718l0-.123a4.185,4.185,0,0,0-8.369,0l0,.123H50.652a.472.472,0,0,0-.473.434Zm14.058,1.872H52.075a2.053,2.053,0,0,1-2.2-1.8v-.013l1.206-13.6H63.972l1.211,13.608v.007A2.053,2.053,0,0,1,62.987,20.737ZM50.13,18.943a1.807,1.807,0,0,0,1.945,1.544H62.987a1.807,1.807,0,0,0,1.945-1.544L63.743,5.577H51.315ZM60.764,4.368H54.3l0-.128a3.231,3.231,0,0,1,6.46,0Zm-6.208-.25h5.949a2.981,2.981,0,0,0-5.949,0Z" transform="translate(1991.2 -61)" fill="#333"/><circle cx="0.692" cy="0.692" r="0.692" transform="translate(2044.461 -54.709)" fill="#333"/><path d="M.692.25a.442.442,0,1,0,.442.442A.442.442,0,0,0,.692.25m0-.25A.692.692,0,1,1,0,.692.692.692,0,0,1,.692,0Z" transform="translate(2044.461 -54.709)" fill="#333"/><circle cx="0.692" cy="0.692" r="0.692" transform="translate(2051.733 -54.709)" fill="#333"/><path d="M.692.25a.442.442,0,1,0,.442.442A.442.442,0,0,0,.692.25m0-.25A.692.692,0,1,1,0,.692.692.692,0,0,1,.692,0Z" transform="translate(2051.733 -54.709)" fill="#333"/></g></svg>