<svg xmlns="http://www.w3.org/2000/svg" width="34" height="34" viewBox="0 0 34 34"><g transform="translate(-1510 -4809)"><g transform="translate(1510.457 4804.917)"><path d="M31.182,9.319l.46-3H28.765V4.375a1.5,1.5,0,0,1,1.69-1.62h1.308V.2A15.95,15.95,0,0,0,29.441,0a3.66,3.66,0,0,0-3.918,4.036V6.321H22.89v3h2.634v7.248h3.241V9.319Z" transform="translate(-11.347 12.8)" fill="#999"/></g><path d="M17,1.5A15.5,15.5,0,0,0,6.04,27.96,15.5,15.5,0,1,0,27.96,6.04,15.4,15.4,0,0,0,17,1.5M17,0A17,17,0,1,1,0,17,17,17,0,0,1,17,0Z" transform="translate(1510 4809)" fill="#bebebe"/></g></svg>