<svg xmlns="http://www.w3.org/2000/svg" width="34" height="34" viewBox="0 0 34 34"><g transform="translate(-1561 -4809)"><g transform="translate(1556.7 4805.2)"><g transform="translate(12.8 12.8)"><path d="M0,0H16.512V16.512H0Z" fill="none"/><path d="M8.88,6.816A2.064,2.064,0,1,0,10.944,8.88,2.064,2.064,0,0,0,8.88,6.816Zm0-1.376A3.44,3.44,0,1,1,5.44,8.88,3.44,3.44,0,0,1,8.88,5.44Zm4.472-.172a.86.86,0,1,1-.86-.86A.86.86,0,0,1,13.352,5.268ZM8.88,3.376c-1.7,0-1.98,0-2.772.04a3.738,3.738,0,0,0-1.237.228A2.147,2.147,0,0,0,3.644,4.871a3.732,3.732,0,0,0-.228,1.237c-.036.76-.04,1.025-.04,2.772,0,1.7,0,1.98.04,2.772a3.753,3.753,0,0,0,.228,1.236A2.139,2.139,0,0,0,4.87,14.115a3.745,3.745,0,0,0,1.238.229c.76.036,1.025.04,2.772.04,1.7,0,1.98,0,2.772-.04a3.76,3.76,0,0,0,1.236-.228,2.01,2.01,0,0,0,.743-.483,1.989,1.989,0,0,0,.484-.743,3.761,3.761,0,0,0,.228-1.238c.036-.76.04-1.025.04-2.772,0-1.7,0-1.98-.04-2.772a3.745,3.745,0,0,0-.228-1.237,2,2,0,0,0-.484-.743,1.984,1.984,0,0,0-.743-.484,3.736,3.736,0,0,0-1.237-.228C10.892,3.38,10.627,3.376,8.88,3.376ZM8.88,2c1.869,0,2.1.007,2.836.041a5.068,5.068,0,0,1,1.67.32,3.354,3.354,0,0,1,1.219.793A3.377,3.377,0,0,1,15.4,4.374a5.082,5.082,0,0,1,.32,1.67c.032.733.041.967.041,2.836s-.007,2.1-.041,2.836a5.086,5.086,0,0,1-.32,1.67A3.513,3.513,0,0,1,13.386,15.4a5.082,5.082,0,0,1-1.67.32c-.733.032-.967.041-2.836.041s-2.1-.007-2.836-.041a5.086,5.086,0,0,1-1.67-.32,3.513,3.513,0,0,1-2.012-2.012,5.065,5.065,0,0,1-.32-1.67C2.009,10.982,2,10.749,2,8.88s.007-2.1.041-2.836a5.065,5.065,0,0,1,.32-1.67A3.513,3.513,0,0,1,4.374,2.361a5.065,5.065,0,0,1,1.67-.32C6.777,2.009,7.011,2,8.88,2Z" transform="translate(-0.624 -0.624)" fill="#999"/></g></g><path d="M17,1.5A15.5,15.5,0,0,0,6.04,27.96,15.5,15.5,0,1,0,27.96,6.04,15.4,15.4,0,0,0,17,1.5M17,0A17,17,0,1,1,0,17,17,17,0,0,1,17,0Z" transform="translate(1561 4809)" fill="#bebebe"/></g></svg>