<svg xmlns="http://www.w3.org/2000/svg" width="174.284" height="37.462" viewBox="0 0 174.284 37.462"><g transform="translate(-359.765 -862.383)"><g transform="translate(359.765 862.383)"><g transform="translate(0 0)"><path d="M482.014,917.828l3.955,3.962-7.239,7.226,7.226,7.239-11.511,11.488-3.432-3.441,7.5-7.525-7.659-7.766.941-.962Z" transform="translate(-455.731 -910.281)" fill="#f04639"/><path d="M378.515,862.383l3.9,3.912-6.2,6.2-8.6,8.584,7.77,7.745-3.925,3.918-7.766-7.752-.021.021-3.911-3.918.013-.014-.013-.014,3.911-3.916.021.021Z" transform="translate(-359.765 -862.383)" fill="#f04639"/><path d="M584.085,972.541l3.8,3.8-3.8,3.8-3.8-3.8Z" transform="translate(-550.27 -957.548)" fill="#f04639"/></g></g><g transform="translate(406.179 867.317)"><path d="M704.7,927.107a6.639,6.639,0,0,1-2.848-2.216,5.833,5.833,0,0,1-1.077-3.417h4.617a2.985,2.985,0,0,0,.939,2.093,3.326,3.326,0,0,0,2.324.77,3.574,3.574,0,0,0,2.37-.724,2.352,2.352,0,0,0,.862-1.893,2.189,2.189,0,0,0-.585-1.57,4.106,4.106,0,0,0-1.462-.97,24.371,24.371,0,0,0-2.417-.785,25.851,25.851,0,0,1-3.4-1.216,5.95,5.95,0,0,1-2.247-1.816,5.172,5.172,0,0,1-.939-3.247,5.807,5.807,0,0,1,.954-3.325,6.07,6.07,0,0,1,2.678-2.17,9.747,9.747,0,0,1,3.94-.754,8.55,8.55,0,0,1,5.4,1.616,5.993,5.993,0,0,1,2.293,4.51H711.36a2.463,2.463,0,0,0-.939-1.831,3.539,3.539,0,0,0-2.324-.724,2.993,2.993,0,0,0-2.016.647,2.337,2.337,0,0,0-.754,1.878,1.939,1.939,0,0,0,.57,1.431,4.326,4.326,0,0,0,1.416.923q.846.354,2.386.816a25.153,25.153,0,0,1,3.417,1.231,6.148,6.148,0,0,1,2.278,1.847,5.133,5.133,0,0,1,.954,3.232,6.08,6.08,0,0,1-.893,3.2A6.3,6.3,0,0,1,712.838,927a8.925,8.925,0,0,1-4.094.877A10.2,10.2,0,0,1,704.7,927.107Z" transform="translate(-700.771 -904.882)" fill="#383838"/><path d="M838.994,917.47v8.25a1.63,1.63,0,0,0,.415,1.247,2.039,2.039,0,0,0,1.4.385h2v3.633H840.1q-5.449,0-5.449-5.295V917.47h-2.032v-3.54h2.032v-4.217h4.341v4.217h3.817v3.54Z" transform="translate(-814.676 -908.205)" fill="#383838"/><path d="M934.133,940.7l-10.559,25.119h-4.587l3.694-8.5L915.848,940.7h4.833l4.4,11.913,4.464-11.913Z" transform="translate(-886.574 -934.971)" fill="#383838"/><path d="M1071.459,898.63v22.779h-4.31V898.63Z" transform="translate(-1017.282 -898.63)" fill="#383838"/><path d="M1138.719,948.758h-12.467a4.237,4.237,0,0,0,1.293,2.894,3.985,3.985,0,0,0,2.8,1.047,3.519,3.519,0,0,0,3.417-2.062h4.648a7.768,7.768,0,0,1-2.832,4.048,8.267,8.267,0,0,1-5.141,1.585,8.892,8.892,0,0,1-4.417-1.093,7.683,7.683,0,0,1-3.047-3.094,9.475,9.475,0,0,1-1.093-4.617,9.651,9.651,0,0,1,1.077-4.648,7.52,7.52,0,0,1,3.017-3.078,9.686,9.686,0,0,1,8.819-.031,7.37,7.37,0,0,1,2.986,2.971,8.988,8.988,0,0,1,1.062,4.417A10.2,10.2,0,0,1,1138.719,948.758Zm-4.34-2.894a3.419,3.419,0,0,0-1.2-2.663,4.256,4.256,0,0,0-2.863-1,3.91,3.91,0,0,0-2.693.97,4.262,4.262,0,0,0-1.339,2.693Z" transform="translate(-1064.564 -933.212)" fill="#383838"/><path d="M1287.938,929.42h-4.31l-9.758-14.745V929.42h-4.31V907.9h4.31l9.758,14.776V907.9h4.31Z" transform="translate(-1192.143 -906.641)" fill="#383838"/><path d="M1444.484,948.758h-12.467a4.238,4.238,0,0,0,1.293,2.894,3.985,3.985,0,0,0,2.8,1.047,3.518,3.518,0,0,0,3.417-2.062h4.648a7.767,7.767,0,0,1-2.832,4.048,8.267,8.267,0,0,1-5.141,1.585,8.891,8.891,0,0,1-4.417-1.093,7.686,7.686,0,0,1-3.048-3.094,9.476,9.476,0,0,1-1.093-4.617,9.653,9.653,0,0,1,1.077-4.648,7.52,7.52,0,0,1,3.017-3.078,9.687,9.687,0,0,1,8.82-.031,7.369,7.369,0,0,1,2.986,2.971,8.988,8.988,0,0,1,1.062,4.417A10.205,10.205,0,0,1,1444.484,948.758Zm-4.34-2.894a3.418,3.418,0,0,0-1.2-2.663,4.256,4.256,0,0,0-2.863-1,3.91,3.91,0,0,0-2.693.97,4.261,4.261,0,0,0-1.339,2.693Z" transform="translate(-1328.712 -933.212)" fill="#383838"/><path d="M1571.748,917.47v8.25a1.631,1.631,0,0,0,.415,1.247,2.04,2.04,0,0,0,1.4.385h2v3.633h-2.709q-5.449,0-5.448-5.295V917.47h-2.032v-3.54h2.032v-4.217h4.341v4.217h3.817v3.54Z" transform="translate(-1447.695 -908.205)" fill="#383838"/></g></g></svg>