<svg xmlns="http://www.w3.org/2000/svg" width="17.187" height="17.187" viewBox="0 0 17.187 17.187"><g transform="translate(0.25 0.25)"><g transform="translate(11.612 11.612)"><path d="M356.168,355.195l-3.947-3.947a.688.688,0,1,0-.974.974l3.947,3.947a.688.688,0,1,0,.974-.974Z" transform="translate(-351.046 -351.046)" fill="#4c4c4c"/></g><path d="M7.459,0a7.459,7.459,0,1,0,7.459,7.459A7.467,7.467,0,0,0,7.459,0Zm0,13.54A6.082,6.082,0,1,1,13.54,7.459,6.089,6.089,0,0,1,7.459,13.54Z" fill="#323232"/><path d="M7.459-.25A7.709,7.709,0,1,1-.25,7.459,7.717,7.717,0,0,1,7.459-.25Zm0,14.917A7.209,7.209,0,1,0,.25,7.459,7.217,7.217,0,0,0,7.459,14.667Zm0-13.54A6.332,6.332,0,1,1,1.127,7.459,6.339,6.339,0,0,1,7.459,1.127Zm0,12.163A5.832,5.832,0,1,0,1.627,7.459,5.838,5.838,0,0,0,7.459,13.29Z" fill="#323232"/></g></svg>