<svg xmlns="http://www.w3.org/2000/svg" xmlns:xlink="http://www.w3.org/1999/xlink" width="66" height="49" viewBox="0 0 66 49"><defs><clipPath id="a"><rect width="21" height="11" transform="translate(1468 1275)" fill="#fff"/></clipPath></defs><g transform="translate(-1432 -1210)"><circle cx="24.5" cy="24.5" r="24.5" transform="translate(1449 1210)" fill="#fff"/><path d="M24.5,2a22.506,22.506,0,0,0-8.757,43.233A22.506,22.506,0,0,0,33.257,3.767,22.357,22.357,0,0,0,24.5,2m0-2A24.5,24.5,0,1,1,0,24.5,24.5,24.5,0,0,1,24.5,0Z" transform="translate(1449 1210)" fill="#b2b2b2"/><path d="M14.291,8.042a1,1,0,0,1-1.41,0l-4.64-4.56v23.56a1,1,0,0,1-2,0V3.512l-4.53,4.53a1,1,0,0,1-1.42-1.41L6.661.262a.9.9,0,0,1,1.27,0l6.36,6.37a1,1,0,0,1,0,1.41Z" transform="translate(1475.312 1228) rotate(90)" fill="#b2b2b2"/><line y2="11" transform="translate(1456.5 1231.5)" fill="#707070"/><g transform="translate(-36 -44)" clip-path="url(#a)"><path d="M14.291,8.042a1,1,0,0,1-1.41,0l-4.64-4.56v23.56a1,1,0,0,1-2,0V3.512l-4.53,4.53a1,1,0,0,1-1.42-1.41L6.661.262a.9.9,0,0,1,1.27,0l6.36,6.37a1,1,0,0,1,0,1.41Z" transform="translate(1499.312 1272) rotate(90)" fill="#b2b2b2"/></g></g></svg>