<svg xmlns="http://www.w3.org/2000/svg" width="34" height="34" viewBox="0 0 34 34"><g transform="translate(-1611 -4809)"><g transform="translate(1607.839 4806.2)"><g transform="translate(12.8 12.8)"><path d="M0,0H16.512V16.512H0Z" fill="none"/><path d="M15.8,5.042a5.768,5.768,0,0,1-1.653.453A2.887,2.887,0,0,0,15.416,3.9a5.75,5.75,0,0,1-1.827.7,2.877,2.877,0,0,0-4.9,2.624,8.169,8.169,0,0,1-5.93-3.007,2.881,2.881,0,0,0,.89,3.842,2.868,2.868,0,0,1-1.3-.36v.036A2.879,2.879,0,0,0,4.65,10.558a2.9,2.9,0,0,1-1.3.05,2.879,2.879,0,0,0,2.688,2A5.775,5.775,0,0,1,1.779,13.8a8.139,8.139,0,0,0,4.41,1.293A8.131,8.131,0,0,0,14.376,6.9c0-.124,0-.249-.009-.372A5.845,5.845,0,0,0,15.8,5.043Z" transform="translate(-0.555 -1.151)" fill="#999"/></g></g><path d="M17,1.5A15.5,15.5,0,0,0,6.04,27.96,15.5,15.5,0,1,0,27.96,6.04,15.4,15.4,0,0,0,17,1.5M17,0A17,17,0,1,1,0,17,17,17,0,0,1,17,0Z" transform="translate(1611 4809)" fill="#bebebe"/></g></svg>