<svg xmlns="http://www.w3.org/2000/svg" width="18.436" height="20.424" viewBox="0 0 18.436 20.424"><g transform="translate(-1524.646 -40.704)"><path d="M20.836,22.114a.8.8,0,0,1-.8-.8v-2.1A3.413,3.413,0,0,0,16.627,15.8H8.209A3.409,3.409,0,0,0,4.8,19.209v2.1a.8.8,0,1,1-1.6,0v-2.1A5.009,5.009,0,0,1,8.209,14.2h8.418a5.015,5.015,0,0,1,5.009,5.009v2.1A.8.8,0,0,1,20.836,22.114Z" transform="translate(1521.446 39.015)" fill="#333"/><path d="M4.034-.8A4.834,4.834,0,1,1-.8,4.034,4.839,4.839,0,0,1,4.034-.8Zm0,8.067A3.234,3.234,0,1,0,.8,4.034,3.237,3.237,0,0,0,4.034,7.267Z" transform="translate(1529.48 41.504)" fill="#333"/></g></svg>